<svg xmlns="http://www.w3.org/2000/svg" viewBox="0 0 180 88.88"><defs><style>.cls-1{fill:#ff671d}</style></defs><g id="Layer_2" data-name="Layer 2"><g id="Orange"><path class="cls-1" d="M17 17.44a8.72 8.72 0 1 0-8.77-8.72A8.73 8.73 0 0 0 17 17.44Zm0-15.26a6.54 6.54 0 1 1-6.54 6.54A6.54 6.54 0 0 1 17 2.18ZM5.36 87.3a4.32 4.32 0 0 0 .62 0 5.24 5.24 0 0 0 3.54-1.91c.05-.07.1-.13 9.69-16.47-.49 3.23-1.1 7.1-1.43 9.13l-.07.48c-.63 3.94-.63 4-.63 4.08a4.46 4.46 0 0 0 1.7 3.68 5.06 5.06 0 0 0 3.22 1 5.1 5.1 0 0 0 4.95-3.65c0-.08 0-.16.77-4.48l1.14-6.89c.56-3.47 1.14-6.75 1.14-6.93.15-.63-.13-2.25-2.06-10.58-.37-1.61-.76-3.28-.81-3.62v-8.48c2.39 1.19 4.88 2.41 6 2.92l1.32 4.65a3 3 0 0 0 2.88 2.14 2.79 2.79 0 0 0 .85-.13l23.25-6.91a3 3 0 0 0 2-3.73l-5.36-18a3 3 0 0 0-3.73-2L46.29 24a4.05 4.05 0 0 0-1.41-1.71 4.39 4.39 0 0 0-3.37-.73c-.65.13-10.63 2.75-14.33 3.73a14.42 14.42 0 0 0-.47-2.29 5.57 5.57 0 0 0-4.94-3.52h-9.18a4.82 4.82 0 0 0-2.41.67 5.62 5.62 0 0 0-3 5.12V49c0 .83.79 4.92 2.65 13.65l.17.81C9.15 65 5.33 71.7 3 75.87L.44 80.29a4.68 4.68 0 0 0 .15 4.24 5.63 5.63 0 0 0 4.77 2.77ZM55 23.66a.79.79 0 0 1 .62.07.76.76 0 0 1 .4.48l5.36 18a.87.87 0 0 1-.07.63.81.81 0 0 1-.48.39l-23.27 6.92a.8.8 0 0 1-1-.54l-1-3.61a4.89 4.89 0 0 0 1.87-.66 4.55 4.55 0 0 0 1.93-4.77 4.4 4.4 0 0 0-2.05-2.77c-.28-.16-2-1-5.15-2.58l-.92-3.63a.83.83 0 0 1 .06-.62.84.84 0 0 1 .49-.4ZM2.38 81.28 4.85 77c7.48-13.11 7.48-13.11 7.4-13.53 0-.07-.11-.52-.26-1.24C9.85 52.12 9.4 49.45 9.39 49V25.29a3.44 3.44 0 0 1 1.88-3.23 2.62 2.62 0 0 1 1.32-.37h9.15a3.38 3.38 0 0 1 2.94 2.13 27.94 27.94 0 0 1 .51 2.94 1.1 1.1 0 0 0 1.37.91c2.21-.6 14.73-3.88 15.38-4a2.21 2.21 0 0 1 1.75.42 1.69 1.69 0 0 1 .48.51l-13 3.88a3 3 0 0 0-2 3.69l.37 1.83-2.79-1.37a1.13 1.13 0 0 1-.52-.39c-.37-.54-1.76-2.42-3-4.08-.74-1-1.52-2.07-1.63-2.24a1.1 1.1 0 0 0-1.43-.38 1.09 1.09 0 0 0-.44 1.46c.06.11.06.12 1.76 2.44 1.16 1.57 2.59 3.52 3 4a3.35 3.35 0 0 0 1.37 1.12c8.84 4.35 10.19 5 10.36 5.14a2.23 2.23 0 0 1 1 1.47 2.39 2.39 0 0 1-1 2.31 2.24 2.24 0 0 1-1.88.29c-.75-.28-10.29-5-11.89-5.83-.29-.25-1.44-1.51-6-7.6l-.22-.34a1.09 1.09 0 1 0-1.74 1.31l.28.37c5.78 7.76 6.29 8 6.67 8.21l3.5 1.75v9.63a36.49 36.49 0 0 0 .87 4c.71 3.07 2 8.75 2 9.69-.06.31-.27 1.58-1.16 7l-1.11 6.84-.71 4.27a2.87 2.87 0 0 1-1.43 1.71 3.17 3.17 0 0 1-3.2-.2 2.3 2.3 0 0 1-.95-1.86c0-.18.3-1.9.61-3.9l.08-.48c1.91-12.1 2.2-14.21 2.18-14.78a.57.57 0 0 0 0-.22l-1-4C20 54.88 19.09 51.44 19 51a1.09 1.09 0 0 0-2.1.6c.11.4 1.25 4.93 2.08 8.24.53 2.09.78 3.09.9 3.58C15.73 70.49 8.31 83.12 7.76 84a3.1 3.1 0 0 1-2.1 1.06 3.44 3.44 0 0 1-3.12-1.55 2.5 2.5 0 0 1-.16-2.23ZM147 58.46c0 5.4 4.08 9.8 9.09 9.8s9.09-4.4 9.09-9.8-4.07-9.8-9.09-9.8-9.09 4.4-9.09 9.8Zm16 0c0 4.2-3.1 7.62-6.91 7.62s-6.91-3.42-6.91-7.62 3.1-7.62 6.91-7.62 6.91 3.42 6.91 7.62ZM159.81 34.66c-1.93-5.79-4.78-13.07-7.39-14.94-10.89-7.8-42.07-7.8-53 0-2.58 1.88-5.42 9.16-7.35 14.94l-.48 1.43h68.7Zm-65.18-.75c2.33-6.73 4.58-11.33 6.1-12.42 9.9-7.08 40.53-7.08 50.42 0 1.52 1.08 3.77 5.67 6.1 12.41ZM95.93 68.26c5 0 9.09-4.4 9.09-9.8s-4.08-9.8-9.09-9.8-9.09 4.4-9.09 9.8 4.08 9.8 9.09 9.8Zm0-17.42c3.81 0 6.91 3.42 6.91 7.62s-3.1 7.62-6.91 7.62S89 62.66 89 58.46s3.12-7.62 6.93-7.62Z"/><path class="cls-1" d="M73.48 42.14a3.89 3.89 0 0 0 3.74 3.28h1a22.23 22.23 0 0 0-3.4 11.93 21.54 21.54 0 0 0 5.79 15.22v10.8a5.35 5.35 0 0 0 5.16 5.51h9.51a5.34 5.34 0 0 0 5.15-5.51v-3.44h51.1v3.44a5.35 5.35 0 0 0 5.16 5.51h9.51a5.35 5.35 0 0 0 5.16-5.51V72.76a21.51 21.51 0 0 0 5.79-15 22.13 22.13 0 0 0-3.56-12.36h1.15a3.85 3.85 0 0 0 3.7-3.24l1.53-8.05a4.35 4.35 0 0 0-.74-3.3 3.77 3.77 0 0 0-3-1.54h-9.54c-3.16-8.87-6.44-14.57-9.76-17C143.59 2.8 108.3 2.8 95 12.33c-3.29 2.36-6.58 8.06-9.76 17h-9.56a3.72 3.72 0 0 0-3 1.53 4.21 4.21 0 0 0-.68 3.26Zm1-10a1.5 1.5 0 0 1 1.22-.64h11.07l.26-.73C90.1 22 93.29 16.23 96.26 14.1 109 5 142.87 5 155.63 14.1c3 2.15 6.19 7.9 9.23 16.63l.26.73h11.06a1.59 1.59 0 0 1 1.24.64 2.05 2.05 0 0 1 .36 1.61l-1.53 8.09a1.68 1.68 0 0 1-1.58 1.43h-5.53l1.42 1.77a19.86 19.86 0 0 1 4.36 12.77 19.38 19.38 0 0 1-5.48 13.8l-.3.31v11.49a3.17 3.17 0 0 1-3 3.33h-9.51a3.17 3.17 0 0 1-3-3.33v-5.62H98.21v5.62a3.17 3.17 0 0 1-3 3.33h-9.48a3.17 3.17 0 0 1-3-3.33V71.64l-.34-.32a.58.58 0 0 0-.1-.09A19.27 19.27 0 0 1 77 57.34 20.05 20.05 0 0 1 81.13 45l1.37-1.75h-5.25a1.71 1.71 0 0 1-1.62-1.47l-1.53-8.07a2 2 0 0 1 .37-1.61Z"/></g></g></svg>