<svg xmlns="http://www.w3.org/2000/svg" viewBox="0 0 180 100.84"><path d="M49.5 100.84h-.08l-37.18-.1c-5.41.17-7.56-2.69-8.38-5.1L.41 85.55a7.69 7.69 0 0 1 2.46-8.46l24-20.62a4.23 4.23 0 0 1 .42-.32c.59-2.65 2.65-11.88 5.28-23.46 1.45-6.33 5.89-10.27 11.58-10.27h26.09L82.83 3.85A8.88 8.88 0 0 1 89.54 0a7.49 7.49 0 0 1 6.17 2.41l12.2 13.45a43.59 43.59 0 0 1 71.28 16.6 1.63 1.63 0 0 1-.56 1.86l-1.44 1.06.86.1A1.62 1.62 0 0 1 179.5 37l.5 8.09a1.67 1.67 0 0 1-.45 1.22 1.64 1.64 0 0 1-1.2.5h-3.9l-.18 1.06 4.58 1.56a1.63 1.63 0 0 1 1.07 1.88l-1.68 7.78a1.59 1.59 0 0 1-.83 1.09 1.61 1.61 0 0 1-1.37.07l-5.2-2.12-.46 1.07 4.76 3.56a1.6 1.6 0 0 1 .64 1.07 1.64 1.64 0 0 1-.31 1.21l-4.34 5.78a1.64 1.64 0 0 1-2.28.33l-4.72-3.55-.44.45 4 4a1.64 1.64 0 0 1 .49 1.18 1.62 1.62 0 0 1-.53 1.17l-5.59 5.14a1.63 1.63 0 0 1-1.28.42 1.65 1.65 0 0 1-1.16-.69l-3.5-5.08-.61.43 2.82 5.51a1.64 1.64 0 0 1-.8 2.23l-7.46 3.25a1.63 1.63 0 0 1-1.28 0 1.61 1.61 0 0 1-.88-.91l-2-5.24h-.6l.56 6.61a1.61 1.61 0 0 1-1.57 1.76l-8.95.26a1.45 1.45 0 0 1-1.2-.48 1.61 1.61 0 0 1-.47-1.21l.25-6.12-1.19-.19-1 6a1.62 1.62 0 0 1-2.07 1.3l-9.14-2.74a1.69 1.69 0 0 1-1-.79 1.65 1.65 0 0 1-.11-1.25l1.8-5.61-.87-.37-2.92 4.79a1.62 1.62 0 0 1-2.43.4l-6.84-5.74-1.78 8a.63.63 0 0 0 .14.54l8.48 9.62a3.87 3.87 0 0 1-2.9 6.42h-11.3a3.85 3.85 0 0 1-3.84-3.45.63.63 0 0 0-.62-.55H55.15a.57.57 0 0 0-.46.21L53.24 99a4.26 4.26 0 0 1-3.74 1.84Zm-37.3-3.35 37.23.1c.64 0 .89 0 1.13-.41l1.57-2.3a3.94 3.94 0 0 1 3-1.47h41.2a3.86 3.86 0 0 1 3.84 3.45.61.61 0 0 0 .61.55h11.3a.6.6 0 0 0 .56-.36.59.59 0 0 0-.1-.66l-8.46-9.64a3.85 3.85 0 0 1-.87-3.39l1.36-6.14-20.15 7.71a15.52 15.52 0 0 1-20-9l-.67-1.75a15.46 15.46 0 0 1-1-6.28h-7.7a6.55 6.55 0 0 1-8.78 1.33 6.23 6.23 0 0 1-2.65-4 6.62 6.62 0 0 1 1-5l.08-.12a4.74 4.74 0 0 0-2.93-1.36H29.42a.6.6 0 0 0-.4.15L4.94 79.59a4.46 4.46 0 0 0-1.46 4.92l3.44 10.08c.44 1.3 1.49 3 5.25 2.9ZM131.39 76.6h.26l4.22.69a1.62 1.62 0 0 1 1.36 1.71l-.23 5.79 5.49-.16-.55-6.5a1.64 1.64 0 0 1 1.47-1.76l3.43-.3a1.61 1.61 0 0 1 1.66 1l1.86 4.8 4.32-1.87-2.68-5.22a1.63 1.63 0 0 1 .51-2.07l3.1-2.18a1.62 1.62 0 0 1 2.27.41l3.37 4.88 3-2.72-4-3.93a1.64 1.64 0 0 1 0-2.31l2.61-2.59a1.62 1.62 0 0 1 2.12-.15l4.55 3.41 2.39-3.18L167.4 61a1.61 1.61 0 0 1-.51-1.94l1.59-3.71a1.63 1.63 0 0 1 2.11-.86l4.88 2 1-4.47-4.51-1.54a1.63 1.63 0 0 1-1.08-1.81l.64-3.8a1.62 1.62 0 0 1 1.6-1.35h3.54l-.31-5-3-.32-22.11 16.4a15.44 15.44 0 0 1-8.52 8l-31.25 12 4.18 3.51 2.66-4.37a1.63 1.63 0 0 1 2-.65l3.51 1.47a1.63 1.63 0 0 1 .93 2L123.06 82l5.8 1.74.92-5.76a1.62 1.62 0 0 1 1.61-1.37Zm5.11-42.47a12.19 12.19 0 0 0-4.39.82L73.83 57.24a12.24 12.24 0 0 0-7.07 15.83l.66 1.75a12.27 12.27 0 0 0 15.84 7.07l58.28-22.28a12.29 12.29 0 0 0 7.08-15.84L148 42a12.32 12.32 0 0 0-11.45-7.89ZM48 66.55a3.33 3.33 0 0 0 4.64-.83l34.63-52.54a3.88 3.88 0 0 1 2.94-1.57 3 3 0 0 1 2.52 1l8.89 10.5c1.26-1.74 2.74-3.73 3.85-5L93.29 4.6a4.2 4.2 0 0 0-3.53-1.34 5.68 5.68 0 0 0-4.24 2.41L47.27 62.09a3.34 3.34 0 0 0-.46 2.53A3 3 0 0 0 48 66.55Zm9.2-1.85h6a15.6 15.6 0 0 1 9.45-10.5L88 48.33V33.06a7.5 7.5 0 0 0-5.41-6.91Zm-26.4-9.16H42a8.19 8.19 0 0 1 4.51 1.88L68 25.67H44.19c-6.16 0-8 5.93-8.41 7.75-2.3 10.09-4.16 18.41-4.98 22.12Zm105.7-24.66a15.55 15.55 0 0 1 14.48 10l.67 1.75a15.43 15.43 0 0 1 1 7l23.1-17.14a40.36 40.36 0 0 0-77.82 12.1L131 31.91a15.76 15.76 0 0 1 5.5-1.03Zm-52-7.52a10.66 10.66 0 0 1 6.83 9.7v14l3.3-1.26A43.57 43.57 0 0 1 100 26.18l-9.59-11.33A1 1 0 0 0 90 15Zm-46 69.33-20.6-.08c-3.65.16-5-2-5.44-3.3l-1.39-4a5 5 0 0 1 1.59-5.51l13.7-11.75A5 5 0 0 1 34 69.68l8.2 15.85a5 5 0 0 1-3.38 7.13 2.07 2.07 0 0 1-.36.03Zm-20.66-3.32 20.41.07a1.71 1.71 0 0 0 1.06-.91 1.75 1.75 0 0 0 0-1.53l-8.2-15.85a1.74 1.74 0 0 0-2.64-.61L14.74 82.3a1.76 1.76 0 0 0-.6 2l1.39 4c.14.38.47 1.16 2.31 1.07Zm61.88-11.21a9 9 0 1 1 9-9 9.06 9.06 0 0 1-9 9Zm0-14.84a5.8 5.8 0 1 0 5.79 5.8 5.8 5.8 0 0 0-5.79-5.8Z" style="fill:#ff671d" data-name="Layer 2"/></svg>